<svg xmlns="http://www.w3.org/2000/svg" width="33" height="20" fill="none" viewBox="0 0 33 20"><g clip-path="url(#clip0_3133_90931)"><path fill="#fff" fill-rule="evenodd" d="M2.093 19.558c-.762 0-1.405-.632-1.405-1.382V1.58C.688.83 1.331.198 2.093.198h28.893c.763 0 1.405.632 1.405 1.383v16.595c0 .75-.642 1.383-1.405 1.383H2.093Z" clip-rule="evenodd"/><path fill="#2671B9" d="m20.774 16.319-.783-.929v.928h-2.247v-1.303c-.3.079-.602.118-1.003.118H16.4v1.186h-3.27l-.563-.77-.561.77H6.648v-5.216h5.418l.562.77.562-.77H32.37V1.52c0-.73-.802-1.323-1.545-1.323H2.194C1.452.198.85.79.85 1.52v5.137l1.043-2.37H4.02l.602 1.362V4.287H7.21l.381 1.146.382-1.146H19.47v.514c.441-.336 1.003-.514 1.645-.514h3.491l.602 1.363V4.287h2.067l.682 1.067V4.287h2.328v5.216h-2.207l-.642-1.008v1.008h-3.15l-.302-.77h-.742l-.301.77h-1.866c-.522 0-1.124-.119-1.605-.474v.474h-3.11l-.743-.929v.929H3.7l-.301-.77h-.743l-.3.77H.89v8.752c0 .71.602 1.303 1.344 1.303h28.613c.742 0 1.544-.592 1.544-1.323v-2.252c-.34.217-.943.296-1.364.296H20.774v.04Z"/><path fill="#2671B9" d="M7.511 15.509h2.93v-.77H8.374v-.673H10.4v-.77H8.374v-.632h2.067v-.77H7.51v3.615Zm7.083 0-1.465-1.818 1.465-1.778h-1.083l-.903 1.146-.903-1.146H10.58l1.465 1.818-1.465 1.817h1.084l.902-1.146.903 1.146h1.124v-.04Zm2.588-2.41c0 .256-.18.414-.481.414h-1.044v-.889h1.044c.32.04.481.217.481.474Zm.863 0c0-.712-.481-1.226-1.244-1.226h-2.026v3.596h.902v-1.185h1.124c.783.04 1.244-.474 1.244-1.186Zm2.428.375H19.43v-.81h1.043c.3 0 .482.178.482.375-.04.217-.181.435-.482.435Zm1.565 2.035-1.204-1.304c.602-.119 1.003-.553 1.003-1.146 0-.672-.481-1.146-1.244-1.146h-1.986v3.596h.903v-1.304h.441l1.084 1.304h1.003Zm.2 0h2.93v-.77h-2.066v-.673h2.026v-.77h-2.026v-.632h2.066v-.77h-2.93v3.615Zm4.234-2.549c0-.217.12-.336.341-.336h1.606l.34-.77h-1.905c-.783 0-1.244.474-1.244 1.146 0 .671.441 1.066 1.163 1.066h.863c.22 0 .341.119.341.336 0 .218-.18.336-.34.336H25.73v.77h1.866c.782 0 1.244-.473 1.244-1.145s-.441-1.008-1.164-1.008h-.863c-.2-.04-.34-.178-.34-.395Zm5.679-1.047-1.907-.04c-.782 0-1.244.475-1.244 1.146 0 .672.442 1.067 1.164 1.067h.863c.22 0 .341.119.341.336 0 .217-.18.336-.341.336h-1.946v.77h1.866c.602 0 1.043-.296 1.204-.71.04-.12.08-.258.08-.416 0-.177-.04-.296-.08-.415-.18-.375-.522-.592-1.084-.592h-.863c-.22 0-.34-.119-.34-.336 0-.217.12-.336.34-.336h1.606l.34-.81ZM3.578 7.211H2.415l.34-.85.221-.553.221.554.381.849Zm.602 1.482h1.004L3.619 5.097H2.455L.85 8.693h1.003l.3-.77H3.88l.301.77Zm4.876 0h.863V5.097H8.494l-.742 2.075-.12.375-.12-.375-.743-2.075H5.344v3.596h.863V5.769l.18.553.823 2.37h.823l.863-2.37.18-.553v.553c-.02 0-.02 2.37-.02 2.37Zm1.565 0h2.93v-.77h-2.067V7.25h2.027v-.77h-2.027v-.633h2.067v-.77h-2.93v3.615ZM16.1 6.658h-1.043v-.81h1.043c.3 0 .481.178.481.375-.04.218-.16.435-.481.435Zm1.565 2.035L16.46 7.33c.602-.119 1.003-.554 1.003-1.146 0-.672-.481-1.146-1.244-1.146h-1.986v3.595h.903V7.33h.401l1.083 1.303h1.044v.06Zm.22 0h.904V5.058h-.903v3.635Zm3.231-2.845h.943v-.81h-1.043c-1.124 0-1.766.77-1.766 1.778v.099c0 1.067.642 1.778 1.686 1.778h.04l.34-.77h-.26c-.602 0-.943-.376-.943-1.008v-.04c.06-.592.401-1.027 1.003-1.027Zm3.11 1.363h-1.164l.341-.85.221-.553.22.554.382.849Zm.622 1.482h1.003l-1.565-3.596h-1.163l-1.606 3.596h.943l.301-.77h1.726l.361.77Zm4.655 0V5.097h-.863V7.41l-.26-.376-1.305-1.956h-1.083v3.616h.863v-2.41l.26.375 1.345 2.035h1.043Z"/><path fill="#E6E6E6" d="M30.987.395c.662 0 1.204.534 1.204 1.185v16.596c0 .652-.542 1.185-1.204 1.185H2.093A1.198 1.198 0 0 1 .89 18.176V1.58C.89.93 1.43.395 2.093.395h28.894Zm0-.395H2.093C1.211 0 .488.711.488 1.58v16.596c0 .869.723 1.58 1.605 1.58h28.894c.883 0 1.605-.711 1.605-1.58V1.58c0-.869-.722-1.58-1.605-1.58Z"/></g><defs><clipPath id="clip0_3133_90931"><path fill="#fff" d="M.488 0h32.104v19.756H.488z"/></clipPath></defs></svg>