<svg width="24" height="24" viewBox="0 0 24 24" fill="none" xmlns="http://www.w3.org/2000/svg"><path fill="#fff" d="M0 0h24v24H0z"/><path d="M7.834 6.316C12.582 1.603 18.342.38 20.647 3.592c2.306 3.213.28 9.706-4.468 14.42C11.43 22.758 5.67 23.98 3.33 20.732c-2.268-3.245-.242-9.705 4.504-14.417z" fill="#F06321"/><path d="M10.977 3.802c-.524.384-1.047.837-1.57 1.328-4.155 4.118-5.902 9.773-3.841 12.602 2.129 2.827 7.226 1.78 11.485-2.375 2.305-2.234 3.84-4.818 4.469-7.226.175-1.78-.07-3.352-.872-4.539-1.815-2.512-5.726-2.305-9.671.21z" fill="#AE282E"/><path d="M16.982 4.325v.105c-.035.593-.384 1.326-1.012 1.955-.943.907-2.2 1.256-2.724.734-.594-.558-.243-1.781.7-2.759.976-.942 2.233-1.256 2.756-.698.175.175.28.384.28.663zm-3.63 16.024c-2.235 1.676-4.539 2.515-6.774 2.166.942.035 1.712-1.014 2.34-2.41.628-1.43.977-2.757 1.291-4.015.454-1.99.489-3.385.245-3.7-.384-.49-1.222-.383-2.2.175-.49.28-1.117.105-.383-.803.768-.907 3.734-3.072 4.781-3.421 1.189-.314 2.515.14 2.061 1.43-.316.943-4.434 11.695-1.36 10.578z" fill="#fff"/></svg>