<svg width="24" height="24" viewBox="0 0 24 24" fill="none" xmlns="http://www.w3.org/2000/svg"><path fill="#fff" d="M0 0h24v24H0z"/><path fill-rule="evenodd" clip-rule="evenodd" d="M2.4 12.227c0-4.56 4.298-8.256 9.6-8.256 5.303 0 9.6 3.696 9.6 8.256 0 4.56-4.297 8.257-9.6 8.257-5.302 0-9.6-3.697-9.6-8.257z" fill="#1F4578"/><path fill-rule="evenodd" clip-rule="evenodd" d="m10.835 6.622 2.23-.737.011 12.057-2.249.754.008-12.074z" fill="#ED3338"/><path fill-rule="evenodd" clip-rule="evenodd" d="M12.159 14.141c-.97 1.168-1.906 2.362-3.661 2.362-2.48 0-3.653-2.397-3.653-4.4 0-1.925.918-4.204 3.332-4.204 1.047 0 2.057.641 2.657 1.318l-.002 1.635c-.502-.339-1.626-.67-2.36-.682-1.532-.026-2.882.637-2.858 2.149.016 1.04 1.046 1.748 2.072 1.748 1.571 0 2.523-1.435 3.319-2.524a93.36 93.36 0 0 0 .945-1.256c.884-1.234 1.906-2.362 3.66-2.362 2.067 0 3.227 1.667 3.556 3.382h-.932c-.375-.556-1.097-.896-1.809-.896-1.624 0-2.594 1.494-3.405 2.593 0 0-.632.862-.861 1.137zm7.061-1.082c-.21 1.725-1.176 3.466-3.29 3.47-1.232.002-2.196-.842-2.863-1.876v-1.196c.835.415 1.615.859 2.562.873 1.166.018 2.22-.431 2.657-1.271h.934z" fill="#fff"/></svg>