<svg xmlns="http://www.w3.org/2000/svg" width="33" height="20" fill="none" viewBox="0 0 33 20"><g clip-path="url(#clip0_3133_90924)"><path fill="#000" fill-rule="evenodd" d="M1.885 19.558c-.762 0-1.405-.632-1.405-1.382V1.58C.48.83 1.123.198 1.885.198h28.893c.763 0 1.405.632 1.405 1.383v16.595c0 .75-.642 1.383-1.405 1.383H1.885Z" clip-rule="evenodd"/><path fill="#E6E6E6" d="M30.779.395c.662 0 1.204.534 1.204 1.185v16.596c0 .652-.542 1.185-1.204 1.185H1.885a1.198 1.198 0 0 1-1.203-1.185V1.58C.682.93 1.223.395 1.885.395H30.78Zm0-.395H1.885C1.003 0 .28.711.28 1.58v16.596c0 .869.723 1.58 1.605 1.58H30.78c.883 0 1.605-.711 1.605-1.58V1.58c0-.869-.722-1.58-1.605-1.58Z"/><path fill="#fff" d="M10.353 17.03v-.949c0-.355-.241-.592-.602-.612-.2 0-.402.06-.542.277a.551.551 0 0 0-.502-.277c-.16 0-.32.04-.441.217v-.177h-.341v1.52h.34V16.2c0-.257.141-.395.382-.395.22 0 .341.138.341.395v.85h.321v-.85c0-.257.16-.395.382-.395.22 0 .34.138.34.395v.85h.322v-.02Zm5.016-1.521h-.542v-.455h-.341v.455h-.321v.296h.321v.691c0 .356.14.554.542.554.14 0 .32-.04.421-.119l-.1-.277c-.1.06-.2.08-.301.08-.16 0-.22-.1-.22-.257v-.692h.54v-.276Zm2.849-.04c-.2 0-.321.099-.401.217v-.177h-.341v1.52h.34v-.849c0-.256.101-.395.322-.395.06 0 .14 0 .2.04l.1-.316a.628.628 0 0 0-.22-.04Zm-4.314.158a1.206 1.206 0 0 0-.622-.158c-.381 0-.642.178-.642.494 0 .257.18.395.522.454l.16.02c.18.02.261.08.261.158 0 .119-.12.178-.341.178a.902.902 0 0 1-.522-.158l-.16.257c.18.138.421.197.662.197.441 0 .702-.197.702-.494 0-.256-.2-.414-.542-.454l-.16-.02c-.14-.02-.26-.04-.26-.158s.1-.178.3-.178c.2 0 .381.08.482.139l.16-.277Zm8.99-.158c-.201 0-.322.099-.402.217v-.177h-.341v1.52h.34v-.849c0-.256.101-.395.322-.395.06 0 .14 0 .2.04l.1-.316a.864.864 0 0 0-.22-.04Zm-4.335.81c0 .454.321.79.823.79.24 0 .381-.059.562-.177l-.16-.257a.62.62 0 0 1-.402.138c-.261 0-.462-.198-.462-.494s.201-.474.462-.494c.14 0 .28.04.401.139l.16-.257c-.16-.139-.32-.178-.561-.178-.482-.02-.823.316-.823.79Zm3.15 0v-.75h-.34v.177c-.101-.138-.262-.217-.482-.217-.442 0-.763.336-.763.79s.341.79.763.79c.22 0 .38-.079.481-.217v.178h.341v-.75Zm-1.244 0c0-.257.18-.494.462-.494.28 0 .461.218.461.494 0 .277-.18.494-.461.494-.301-.02-.462-.237-.462-.494Zm-4.053-.81c-.441 0-.762.316-.762.79 0 .474.32.79.782.79.241 0 .442-.059.622-.217l-.16-.237a.753.753 0 0 1-.442.158c-.22 0-.421-.099-.461-.375h1.143v-.119c0-.454-.28-.79-.722-.79Zm0 .296c.22 0 .361.139.381.376h-.802c.04-.217.18-.376.421-.376Zm8.407.514v-1.363h-.34v.79c-.101-.138-.262-.217-.482-.217-.442 0-.763.336-.763.79s.341.79.763.79c.22 0 .38-.079.481-.217v.178h.341v-.75Zm-1.244 0c0-.257.18-.494.462-.494.28 0 .461.218.461.494 0 .277-.18.494-.461.494-.301-.02-.462-.237-.462-.494Zm-11.336 0v-.75h-.321v.177c-.1-.138-.261-.217-.482-.217-.441 0-.762.336-.762.79s.34.79.762.79c.22 0 .381-.079.482-.217v.178h.34v-.75h-.02Zm-1.244 0c0-.257.18-.494.461-.494s.462.218.462.494c0 .277-.18.494-.462.494a.484.484 0 0 1-.461-.494Zm14.386.534c.02 0 .04 0 .06.02.02 0 .04.019.04.039.02.02.02.04.04.04 0 .019.02.039.02.059 0 .02 0 .04-.02.059 0 .02-.02.04-.04.04-.02.02-.04.02-.04.039-.02 0-.04.02-.06.02-.02 0-.04 0-.06-.02-.02 0-.04-.02-.04-.04l-.04-.04c0-.019-.02-.039-.02-.058 0-.02 0-.04.02-.06 0-.02.02-.04.04-.04.02-.019.04-.019.04-.039.02-.02.04-.02.06-.02Zm0 .276h.04c.02 0 .02-.02.04-.02.02-.02.02-.02.02-.04v-.078c0-.02-.02-.02-.02-.04-.02-.02-.02-.02-.04-.02h-.08c-.02 0-.02.02-.04.02-.02.02-.02.02-.02.04v.079c0 .02.02.02.02.04.02.02.02.02.04.02 0-.02.02 0 .04 0Zm0-.197c.02 0 .04 0 .04.02 0 0 .02.019.02.039s0 .02-.02.02c0 0-.02.02-.04.02l.04.059h-.04l-.04-.06h-.02v.06h-.04v-.139h.1v-.02Zm-.04.02v.039h.06v-.04h-.06Z"/><path fill="#F16522" d="M13.784 3.951h5.077v8.99h-5.077V3.95Z"/><path fill="#E41B24" d="M14.125 8.436c0-1.818.862-3.438 2.207-4.485a5.789 5.789 0 0 0-3.592-1.225c-3.21 0-5.799 2.549-5.799 5.71 0 3.16 2.589 5.71 5.8 5.71a5.831 5.831 0 0 0 3.59-1.226 5.617 5.617 0 0 1-2.206-4.484Z"/><path fill="#F89E1C" d="M25.722 8.436c0 3.16-2.588 5.71-5.798 5.71a5.832 5.832 0 0 1-3.592-1.226 5.674 5.674 0 0 0 2.207-4.484 5.674 5.674 0 0 0-2.207-4.485 5.789 5.789 0 0 1 3.592-1.225c3.19 0 5.798 2.569 5.798 5.71Zm-.562 3.556v-.178h.08v-.04h-.2v.04h.08v.178h.04Zm.382 0v-.217h-.06l-.06.158-.06-.158H25.3v.217h.04v-.158l.06.138h.04l.06-.138v.158h.04Z"/></g><defs><clipPath id="clip0_3133_90924"><path fill="#fff" d="M.28 0h32.104v19.756H.28z"/></clipPath></defs></svg>