<svg xmlns="http://www.w3.org/2000/svg" width="24" height="24" fill="none" viewBox="0 0 24 24"><path fill="#fff" d="M0 0h24v24H0z"/><path fill="#001325" fill-opacity=".92" d="M20.008 16.936h-1.59v-6.724h1.56a.993.993 0 0 0 .88-.696.983.983 0 0 0-.34-1.067l-7.979-5.29a.993.993 0 0 0-1.08 0L3.48 8.45a.987.987 0 0 0-.426 1.116.986.986 0 0 0 .966.707h1.47v6.724h-1.5A1.022 1.022 0 0 0 3 18.012v1.972A1.014 1.014 0 0 0 3.99 21h16.018a1.022 1.022 0 0 0 .99-1.016v-1.972a1.013 1.013 0 0 0-.594-.985 1.022 1.022 0 0 0-.396-.091Zm-4.2 0H13.26v-6.724h2.55v6.724ZM8.1 10.212h2.55v6.724H8.1v-6.724Z"/></svg>