<svg xmlns="http://www.w3.org/2000/svg" width="24" height="24" fill="none" viewBox="0 0 24 24"><path fill="#D8D8D8" d="M7.578 10.18H.218V2.82h7.36z" opacity=".01"/><path fill="#000" d="M18.764 10.408c.504-.486.986-.676 1.568-.542.312.071.595.176.773.444.114.162.177.12.291.007.49-.507 1.071-.627 1.71-.345.645.281.9.803.894 1.499-.015 1.351-.007 2.695-.007 4.047 0 .598-.277.873-.887.887-.76.021-.76.021-.76-.711v-3.625c0-.542-.106-.697-.46-.704-.355-.007-.49.183-.49.733v3.308c0 .731-.27.999-.993 1.007-.674 0-.674 0-.674-.663v-3.764c0-.43-.142-.62-.454-.62-.327 0-.497.204-.497.627v3.483c0 .64-.284.923-.929.93-.738.014-.738.014-.738-.733 0-1.78.007-3.56-.008-5.341 0-.324.093-.402.398-.38.305.027.617.02.922 0 .263-.022.426.027.341.457v-.001Z"/><path fill="#6F6F6F" fill-rule="evenodd" d="m8.252 13.745-.002-.69.001-.538c.002-.538.003-1.073-.008-1.601-.007-.606-.369-.958-.971-.958H5.569c-.703 0-.703 0-.653.704.035.507.326.775.851.782l.2.001c.135.002.271.004.404-.001.227-.014.368.041.368.302 0 .268-.17.303-.376.303h-.137a5.269 5.269 0 0 0-.537.014c-.794.07-1.348.647-1.361 1.435-.008.481-.008.962 0 1.443.02.866.567 1.422 1.44 1.457.401.015.795.008 1.197 0h.008c.83-.02 1.263-.45 1.277-1.267.005-.464.004-.926.002-1.386Zm-1.506-.134v.563c0 .03.003.062.005.093.005.063.01.127-.005.189a.42.42 0 0 0 .007.163c.022.142.046.285-.24.28-.49-.007-.66-.106-.682-.464-.005-.085-.003-.173-.001-.26l.001-.127c0-.543.242-.732.78-.634.136.027.136.099.135.185v.012ZM12.69 12.703c-.012.264-.005.551.003.853.014.503.029 1.046-.052 1.583-.106.732-.517 1.126-1.256 1.217-.399.05-.802.044-1.206.037a15.98 15.98 0 0 0-.661-.002c-.064.002-.148.004-.148-.077a2.878 2.878 0 0 0-.012-.318c-.022-.289-.043-.58.169-.836.156-.197.368-.282.624-.275h.71c.205 0 .297-.099.297-.31s-.106-.288-.312-.288a8.669 8.669 0 0 1-.603 0c-.873-.042-1.469-.612-1.49-1.472-.013-.527-.01-1.055-.008-1.583.002-.352.004-.704 0-1.056 0-.19.065-.246.25-.232.14.01.292-.006.444-.022.302-.031.599-.061.783.107.156.14.121.432.086.726-.016.135-.032.271-.03.393.005.267.004.53.002.796l-.002.4c0 .303.157.451.462.444.298-.007.418-.177.418-.45l.001-.528c.002-.528.003-1.056-.008-1.584-.007-.212.05-.296.277-.282.334.021.66.021.993 0 .22-.014.277.07.277.282-.01.569-.01 1.14-.008 1.78v.697Zm-12.663.9v-2.358c.007-.851.454-1.295 1.312-1.302.142 0 .284 0 .426-.002.284-.001.568-.003.852.002.758.014 1.333.55 1.347 1.303.022.774.022 1.548 0 2.322-.014.718-.546 1.239-1.277 1.31-.056.006-.12.006-.177.006-.089 0-.183-.008-.277-.017-.22-.02-.442-.042-.596.053-.165.095-.141.29-.116.489.014.11.028.222.01.32-.065.38-.341.627-.76.662-.751.056-.751.056-.751-.676.007-.704.007-1.407.007-2.111Zm1.504-.45v-.774l-.001-.11a3.38 3.38 0 0 1 .008-.348c.005-.05 0-.104-.003-.158-.015-.188-.028-.369.336-.341.503.035.595.091.595.556l-.001.317c-.001.211-.003.422.001.633 0 .176-.027.33-.212.409-.213.091-.44.077-.66.035-.075-.017-.07-.1-.065-.171a.764.764 0 0 0 .002-.047Z" clip-rule="evenodd"/><path fill="#000" d="M14.103 13.654c0-.634-.007-1.268.007-1.901.007-.239-.05-.323-.306-.323-.603.014-.61 0-.603-.606 0-.267-.085-.583.035-.795.115-.204.468-.106.71-.183.37-.113.64-.345.873-.627.177-.21.368-.4.645-.457.185-.042.334-.035.299.225-.008.056 0 .12 0 .176.007.247-.071.542.042.718.121.176.44.049.667.063.156.007.206.063.199.212-.007.351-.014.703 0 1.055.007.19-.071.233-.249.233-.667.021-.667.027-.667.683 0 1.309-.007 2.625.008 3.934 0 .26-.064.366-.333.33-.178-.02-.355.007-.533-.014-.518-.063-.795-.38-.801-.894.007-.612.007-1.217.007-1.83Z"/></svg>