<svg xmlns="http://www.w3.org/2000/svg" width="33" height="20" fill="none" viewBox="0 0 33 20"><g clip-path="url(#clip0_3133_90903)"><path fill="#fff" fill-rule="evenodd" d="M1.989 19.558c-.763 0-1.405-.632-1.405-1.382V1.58C.584.83 1.226.198 1.989.198h28.893c.762 0 1.404.632 1.404 1.383v16.595c0 .75-.642 1.383-1.404 1.383H1.989Z" clip-rule="evenodd"/><g clip-path="url(#clip1_3133_90903)"><path fill="#008C44" d="m29.246 6.667 1.63 3.112-3.426 3.113 1.796-6.225Z"/><path fill="#F47920" d="m28.118 6.667 1.627 3.112-3.423 3.113 1.796-6.225Z"/><path fill="#1B3281" d="M1.995 11.76 3.62 6.13h2.597c.812 0 1.354.124 1.63.379.273.252.326.665.161 1.244-.1.342-.251.628-.46.855a2.14 2.14 0 0 1-.815.538c.285.066.466.196.547.393.081.196.072.482-.027.857l-.197.786v.021c-.058.22-.04.338.052.348l-.06.208H5.291c.006-.132.017-.25.029-.35a1.61 1.61 0 0 1 .044-.235l.164-.562c.082-.292.087-.496.01-.614-.077-.12-.25-.18-.523-.18h-.738l-.563 1.941H1.995Zm2.647-3.21h.791c.277 0 .482-.038.608-.117.126-.08.22-.213.276-.407.057-.197.043-.335-.04-.413-.081-.08-.277-.118-.585-.118h-.745L4.642 8.55ZM12.83 7.606l-1.198 4.153h-1.455l.179-.608a2.843 2.843 0 0 1-.783.543c-.262.12-.538.178-.83.178-.24 0-.447-.042-.613-.125a.823.823 0 0 1-.378-.376 1.036 1.036 0 0 1-.095-.541c.013-.212.091-.569.235-1.069l.62-2.155h1.593l-.62 2.145c-.09.314-.112.535-.067.655.045.121.168.184.367.184.2 0 .37-.07.509-.213.141-.141.25-.352.332-.632l.614-2.14h1.59ZM12.253 11.76l1.623-5.63h2.232c.493 0 .874.028 1.146.09.271.059.484.154.642.289.198.176.32.394.37.655.047.262.019.566-.084.924-.182.63-.5 1.111-.955 1.448-.455.333-1.019.5-1.692.5h-1.044l-.497 1.723h-1.741Zm2.633-3.099h.562c.362 0 .618-.043.767-.126.145-.084.248-.234.31-.447.063-.216.047-.367-.048-.451-.091-.084-.324-.126-.697-.126h-.56l-.334 1.15ZM20.055 11.76l.016-.395a2.933 2.933 0 0 1-.778.412c-.26.089-.538.134-.835.134-.45 0-.765-.118-.947-.346-.18-.229-.209-.557-.086-.975.117-.413.326-.717.627-.912.299-.196.799-.337 1.5-.427.089-.014.208-.025.357-.043.519-.057.81-.19.872-.407.033-.119.013-.206-.063-.26-.074-.056-.212-.083-.412-.083a.746.746 0 0 0-.408.101c-.109.07-.19.17-.245.313H18.1c.14-.467.426-.82.856-1.057.428-.24.993-.356 1.692-.356.33 0 .624.03.884.094.261.062.452.15.575.255a.747.747 0 0 1 .268.45c.03.167-.003.406-.093.718l-.668 2.316a.442.442 0 0 0-.014.205c.014.059.04.109.088.145l-.036.117h-1.598Zm.387-1.855a5.944 5.944 0 0 1-.662.196c-.429.11-.67.258-.723.441-.036.117-.021.208.039.277.059.065.16.098.305.098.264 0 .476-.064.634-.191.159-.129.278-.33.36-.609l.036-.133.01-.08ZM21.665 13.396l.353-1.23h.456a.677.677 0 0 0 .357-.081.442.442 0 0 0 .178-.271.93.93 0 0 0 .034-.178 1.87 1.87 0 0 0 0-.227L22.8 7.605h1.612l-.025 2.52 1.406-2.52h1.499l-2.487 4.134c-.282.462-.488.78-.618.953-.128.17-.25.304-.369.394a1.398 1.398 0 0 1-.51.264c-.185.053-.467.079-.846.079a11.021 11.021 0 0 1-.797-.033Z"/></g><path fill="#E6E6E6" d="M30.882.395c.662 0 1.204.534 1.204 1.185v16.596c0 .652-.542 1.185-1.204 1.185H1.99a1.198 1.198 0 0 1-1.204-1.185V1.58C.785.93 1.327.395 1.99.395h28.893Zm0-.395H1.99C1.106 0 .384.711.384 1.58v16.596c0 .869.722 1.58 1.605 1.58h28.893c.883 0 1.605-.711 1.605-1.58V1.58c0-.869-.722-1.58-1.605-1.58Z"/></g><defs><clipPath id="clip0_3133_90903"><path fill="#fff" d="M.384 0h32.104v19.756H.384z"/></clipPath><clipPath id="clip1_3133_90903"><path fill="#fff" d="M1.99 6.124h28.892v7.31H1.99z"/></clipPath></defs></svg>