<svg xmlns="http://www.w3.org/2000/svg" width="24" height="24" fill="none" viewBox="0 0 24 24"><path fill="#001325" fill-opacity=".92" d="M22.68 11.44a5.802 5.802 0 0 0-4.527-5.651V3.016a.998.998 0 0 0-.998-.999H5.675a.998.998 0 0 0-.998.998v17.97a.998.998 0 0 0 .998.998h11.48a.997.997 0 0 0 .998-.998V17.09a5.802 5.802 0 0 0 4.526-5.65ZM6.176 20.482V3.517h10.476v2.139a5.787 5.787 0 0 0 0 11.566v3.26H6.177Zm10.706-4.749a4.294 4.294 0 1 1 .002-8.588 4.294 4.294 0 0 1-.002 8.588Z"/><path fill="#010101" d="M18.062 10.34h-.23a1.521 1.521 0 0 0-.11-.245h.387a.4.4 0 0 0 0-.8h-1.733l-.01-.001h-.707a.401.401 0 0 0-.4.4v.001a.401.401 0 0 0 .4.4h.712a.751.751 0 0 1 .547.245H15.66a.4.4 0 0 0 0 .8h1.41a.76.76 0 0 1-.703.474h-.702c-.055 0-.11.01-.16.031l-.006.004a.398.398 0 0 0-.122.081.39.39 0 0 0-.063.095.367.367 0 0 0-.023.035.401.401 0 0 0-.031.154c0 .009.004.015.005.023 0 .044.01.088.026.13a.4.4 0 0 0 .088.131l1.73 1.731a.401.401 0 0 0 .567-.566l-1.072-1.072a1.559 1.559 0 0 0 1.295-1.25h.164a.4.4 0 0 0 0-.801ZM11.415 19.161a.768.768 0 1 0 0-1.535.768.768 0 0 0 0 1.535Z"/></svg>