<svg xmlns="http://www.w3.org/2000/svg" width="32" height="20" fill="none" viewBox="0 0 32 20"><g clip-path="url(#clip0_3133_90897)"><path fill="#fff" fill-rule="evenodd" d="M1.564 19.558c-.743 0-1.369-.632-1.369-1.382V1.58C.195.83.821.198 1.564.198h28.152c.743 0 1.369.632 1.369 1.383v16.595c0 .75-.626 1.383-1.369 1.383H1.564Z" clip-rule="evenodd"/><path fill="#E6E6E6" d="M29.716.395c.646 0 1.174.534 1.174 1.185v16.596c0 .652-.528 1.185-1.174 1.185H1.564a1.183 1.183 0 0 1-1.173-1.185V1.58C.391.93.919.395 1.564.395h28.152Zm0-.395H1.564C.704 0 0 .711 0 1.58v16.596c0 .869.704 1.58 1.564 1.58h28.152c.86 0 1.564-.711 1.564-1.58V1.58c0-.869-.703-1.58-1.564-1.58Z"/><path fill="url(#paint0_linear_3133_90897)" d="m15.523 6.223-1.544 7.31h-1.877l1.544-7.31h1.877Zm7.879 4.722.977-2.746.567 2.746h-1.544Zm2.092 2.608h1.74l-1.506-7.31h-1.603a.88.88 0 0 0-.802.533l-2.815 6.777h1.975l.39-1.087h2.405l.216 1.087Zm-4.888-2.39c0-1.937-2.64-2.036-2.62-2.905 0-.257.254-.533.802-.612.273-.04 1.016-.06 1.838.335l.332-1.56a5.208 5.208 0 0 0-1.76-.316c-1.857 0-3.147.987-3.167 2.41-.02 1.047.939 1.64 1.643 1.995.723.356.977.593.977.909 0 .494-.587.711-1.114.711-.939.02-1.486-.257-1.916-.454l-.333 1.6c.43.198 1.252.375 2.092.395 1.936-.02 3.226-.988 3.226-2.509Zm-7.762-4.94-3.03 7.31H7.84L6.334 7.705c-.097-.356-.176-.494-.45-.652-.449-.237-1.192-.474-1.857-.613l.04-.217h3.186c.41 0 .763.277.86.75l.782 4.229 1.955-4.979h1.995Z"/></g><defs><linearGradient id="paint0_linear_3133_90897" x1="6.551" x2="26.108" y1="11.657" y2="7.938" gradientUnits="userSpaceOnUse"><stop stop-color="#22275D"/><stop offset="1" stop-color="#24479B"/></linearGradient><clipPath id="clip0_3133_90897"><path fill="#fff" d="M0 0h31.28v19.756H0z"/></clipPath></defs></svg>