<svg xmlns="http://www.w3.org/2000/svg" width="24" height="24" fill="none" viewBox="0 0 24 24"><path fill="#fff" d="M0 0h24v24H0z"/><path fill="#C4261B" d="M22.203 5.601c.2-.266.383-.546.597-.801-2.089 3.752-4.163 7.514-6.247 11.269-.52.947-1.051 1.887-1.565 2.837a.497.497 0 0 1-.122-.092c-.733-.76-1.47-1.515-2.205-2.273.522-.006 1.043 0 1.564-.003 2.66-3.645 5.32-7.29 7.978-10.937Z"/><path fill="#005192" d="M1.2 7.89c6.319-.009 12.637 0 18.955-.004-2.101 2.79-4.188 5.591-6.299 8.373-4.217-.003-8.434-.002-12.651.002-.01-2.79 0-5.58-.005-8.37Zm10.71 2.055c-.41.135-.74.517-.763.957-.033.333.084.675.314.916.354.388.877.545 1.28.87.14.107.212.32.118.48-.09.18-.307.236-.49.248-.432.008-.827-.201-1.183-.425.014.371.037.742.073 1.112.616.193 1.327.323 1.924.004.648-.331.875-1.273.446-1.863-.351-.43-.884-.632-1.341-.92-.119-.08-.244-.2-.23-.358.003-.215.237-.333.428-.32.378.01.72.204 1.034.396 0-.328.004-.656-.002-.985-.514-.167-1.081-.305-1.608-.112Zm-8.652.042c.474.738.98 1.455 1.455 2.191.018.662.002 1.327.007 1.99.325 0 .65.001.975-.001 0-.668-.006-1.336.003-2.003.505-.74 1.064-1.444 1.582-2.175-.342-.005-.684 0-1.027-.003-.323.438-.64.882-.952 1.328-.3-.439-.573-.894-.877-1.33-.388.007-.777 0-1.166.003Zm4.448 4.182c.85 0 1.7-.002 2.55 0 .005-.293.003-.587.002-.88-.533-.007-1.066-.002-1.6-.002v-.825h1.356c0-.283-.003-.565.002-.848-.452-.008-.904-.004-1.356-.003-.003-.25-.001-.5-.002-.752.528-.037 1.058.003 1.585-.018-.006-.285-.001-.57-.004-.854-.843 0-1.686.001-2.53-.001-.005 1.394 0 2.788-.003 4.183Z"/></svg>